# xmcd
#
# Track frame offsets:
#	150
#	17742
#	32168
#	57121
#	70252
#	92881
#	109456
#	127561
#	146242
#	168709
#	183921
#	204148
#	219408
#	254197
#
# Disc length: 3689 seconds
#
# Revision: 1
# Processed by: cddbd v1.5.2PL0 Copyright (c) Steve Scherf et al.
# Submitted via: EZCDAudioConverter 2.1.7.1
#
DISCID=ce0e670e
DTITLE=V/A - Gimme Danger
DYEAR=2016
DGENRE=
TTITLE0=Iggy Pop - Break Into Your Heart
TTITLE1=Mark Lanegan - Harvest Home
TTITLE2=Masters Of Reality - Counting Horses
TTITLE3=Turbonegro - Back To Dungaree High
TTITLE4=Unkle featuring Josh Homme - Restless
TTITLE5=Desert Sessions - I Wanna Make It Wit Chu
TTITLE6=Twilight Singers - Waves
TTITLE7=Desert Sessions - Eccentric Man
TTITLE8=Fatso Jetson - Light Yourself On Fire
TTITLE9=Wellwater Conspiracy - Ladder To The Moon
TTITLE10=Mojave Lords - Sweet Little Down and Out
TTITLE11=Hello=Fire - Far From It
TTITLE12=Earthlings? - Saving Up For My Spaceship/Illuminate
TTITLE13=Desert Sessions - Don't Drink Poison
EXTD=
EXTT0=
EXTT1=
EXTT2=
EXTT3=
EXTT4=
EXTT5=
EXTT6=
EXTT7=
EXTT8=
EXTT9=
EXTT10=
EXTT11=
EXTT12=
EXTT13=
PLAYORDER=
